<svg width="31" height="32" viewBox="0 0 31 32" fill="none" xmlns="http://www.w3.org/2000/svg">
<path d="M2.46123 5.24841C2.45029 5.25935 2.44373 5.39279 2.44373 5.54591V5.82373L2.61435 5.83904C2.90091 5.8631 3.0606 5.89373 3.26185 5.96154C3.81966 6.14748 4.17404 6.54123 4.34029 7.15591L4.39935 7.37029L4.41248 9.17498C4.42779 10.8615 4.43216 11.0015 4.47591 11.3165C4.75373 13.2962 5.55654 14.7859 6.94998 15.9059C8.45935 17.1178 10.6469 17.8419 13.1034 17.9381L13.4906 17.9534L13.4884 19.8587C13.4862 20.9065 13.4797 22.5559 13.4709 23.525L13.4556 25.2859L13.3878 25.4894C13.2215 25.9837 12.9022 26.3315 12.3947 26.5744C12.1672 26.6837 11.8937 26.769 11.6094 26.8194C11.3272 26.8675 10.8153 26.8981 10.5637 26.8828L10.3384 26.8675L10.345 27.1256L10.3515 27.3837L10.5812 27.3794C13.8406 27.3247 16.0281 27.3247 19.2875 27.3794L19.5172 27.3837L19.5237 27.1256L19.5303 26.8675L19.305 26.8828C19.0512 26.8981 18.5415 26.8675 18.2528 26.8172C17.964 26.7647 17.7015 26.6837 17.474 26.5744C16.9665 26.3315 16.6559 25.9947 16.4831 25.4937L16.4109 25.2859L16.3978 23.4484C16.389 22.4378 16.3825 20.7884 16.3803 19.7822L16.3781 17.9534L16.7675 17.9381C18.9462 17.8528 20.9325 17.2687 22.4047 16.2844C22.9647 15.9081 23.5662 15.3612 23.9447 14.8844C24.7365 13.8847 25.1872 12.7712 25.395 11.3078C25.4365 11.0037 25.4409 10.8484 25.4562 9.17498L25.4694 7.37029L25.5284 7.15591C25.71 6.48435 26.1169 6.07748 26.7797 5.90685C26.889 5.87841 27.2872 5.8281 27.3944 5.8281C27.4206 5.8281 27.425 5.77779 27.4206 5.53716L27.414 5.24841L27.0422 5.2506C25.699 5.25498 24.4828 5.72529 23.6515 6.55873C23.1747 7.03779 22.8619 7.56716 22.6234 8.28904C22.4397 8.84466 22.3587 9.37623 22.3281 10.2053C22.3172 10.5137 22.2909 10.9075 22.2734 11.0803C22.1072 12.5875 21.6456 13.8759 20.9215 14.8406C20.7378 15.0856 20.3506 15.4903 20.1187 15.6784C19.4494 16.2187 18.6137 16.5622 17.6578 16.689C17.3647 16.7284 16.5837 16.759 16.459 16.735L16.3781 16.7197V12.8872C16.3803 8.75279 16.3934 7.97185 16.4634 7.66123C16.6209 6.96998 17.0628 6.47779 17.73 6.25248C18.174 6.10154 18.6575 6.04685 19.1737 6.08841C19.3509 6.10154 19.5172 6.11904 19.5456 6.1256C19.5937 6.13873 19.5937 6.13873 19.5937 5.85216V5.5656H14.9344H10.275V5.85216C10.275 6.13873 10.275 6.13873 10.3253 6.1256C10.3515 6.11904 10.5178 6.10154 10.695 6.08841C11.2112 6.04685 11.6947 6.10154 12.1387 6.25248C12.7731 6.46685 13.2215 6.94154 13.379 7.5606C13.4775 7.94123 13.4753 7.85154 13.484 12.384L13.495 16.7197L13.4119 16.735C13.285 16.759 12.5062 16.7284 12.2109 16.689C11.255 16.5622 10.4194 16.2187 9.74998 15.6784C9.5181 15.4903 9.13091 15.0856 8.94716 14.8406C8.5031 14.25 8.14873 13.515 7.91466 12.7056C7.68498 11.9137 7.57779 11.1919 7.5406 10.2053C7.50998 9.36091 7.42904 8.84685 7.23435 8.25623C6.69185 6.60466 5.42091 5.57873 3.57466 5.30091C3.27279 5.25498 2.48966 5.21998 2.46123 5.24841Z" fill="#121212"/>
</svg>
