<svg xmlns="http://www.w3.org/2000/svg" width="400" viewBox="0 0 300 150" height="200" version="1.0"><path d="M10.326 81.235c.2 0 .403 0 .535-.067.336-.066.668-.203 1.004-.336.332-.199.668-.336 1.004-.535 2.207-1.004 4.547-1.605 6.89-1.941 3.946-.535 7.626-1.403 11.376-2.274.601-.066 1.672-.336 1.672-1.07.066-.469-.27-.937-.738-.871-.266 0-.602.137-.868.203-2.879.602-5.687 1.27-8.566 1.805-1.672.336-3.41.601-5.082.937a19.82 19.82 0 0 0-5.086 1.473c-.2.066-.336.066-.402 0-.2 0-.266-.066-.266-.27.2-.601.332-1.136.535-1.671 2.676-8.497 5.485-16.793 8.363-25.157a83.04 83.04 0 0 1 4.012-9.433l1.606-3.344c.203-.336.27-.602.203-1.07-.067-.27-.203-.403-.403-.403-.199-.066-.336-.066-.402 0-.8.469-2.742 4.684-3.613 6.692-.867 2.008-2.875 6.89-3.211 7.691a252.61 252.61 0 0 0-4.617 13.582c-1.403 4.617-3.008 9.168-4.68 13.715l-.203.871c-.2 1.004.066 1.473.937 1.473Zm0 0" fill="#fff"/><path d="M31.267 73.274c4.617 0 11.64-6.824 14.852-10.238.27-.266.468-.47.535-.668.203-.336.136-.668-.2-1.004a.611.611 0 0 0-.468-.2c-.133 0-.336.067-.535.2l-.602.601c-.203.2-.469.403-.668.602-.805.738-1.605 1.472-2.344 2.207-.8.738-1.605 1.539-2.406 2.277-1.941 1.805-5.02 3.945-7.695 4.48-1.274 0-2.008 0-2.274-1.538-.336-.868-.402-1.606-.203-2.34.067-.336.27-.535.535-.602 3.211-.336 7.426-4.281 7.961-7.562.203-1.54-.668-2.473-2.004-2.473h-.27c-.066.066-.198.066-.265.066-3.547.536-6.156 5.22-7.293 8.364-.27 1.004-.535 1.937-.468 3.078-.067.734.132 1.539.398 2.273.469 1.672 1.61 2.477 3.414 2.477Zm-.602-8.23c-.066.066-.203 0-.402-.067-.066 0-.133-.133-.133-.336.735-2.074 3.012-5.418 5.219-5.754.332-.066.535.066.602.535 0 2.14-3.547 4.684-5.286 5.621Zm0 0" fill="#fff"/><path d="M44.58 80.832c1.07 0 2.343-.937 2.945-1.738 2.14-2.476 4.55-5.754 6.758-8.766 1.871-2.542 4.348-5.953 5.687-7.558.133-.137.2-.27.2-.402.199-.403.132-.739-.2-1.004-.203-.067-.336-.133-.468-.133h-.137c-.067.066-.067.066-.133.066a2.356 2.356 0 0 0-.8.535c-.204.266-.47.536-.673.801-1.937 1.942-7.828 10.774-10.636 14.32-.336.399-.668.801-1.004 1.204-.332.336-.735.601-1.336.668-1.004-.801-.672-2.008-.602-3.012.2-2.34.465-4.48 1-6.688.871-3.882 4.352-14.52 5.89-17.93.333-.87 1.005-1.273 1.938-1.34l14.387-1.269c.332-.066.602-.066.867-.136.27 0 .535-.067.871-.133.27-.067.403-.336.403-.668-.067-.469-.27-.668-.535-.668h-2.41c-1.872.199-3.88.398-6.086.535-2.211.2-4.215.398-6.09.602h-.336c-.133.066-.266.066-.399.066-.27 0-.535-.066-.87-.133 0-.336.066-.672.198-.937.067-.203.204-.47.27-.668.871-1.809 1.738-3.547 2.477-5.356.332-.601.398-1.137.332-1.469-.133-.335-.332-.468-.602-.468-.469 0-.938.398-1.406 1.203-.332.535-.668 1.07-.934 1.605-.336.535-.605 1.07-.937 1.606L50.4 47.582c-.332.735-.867 1.07-1.672 1.137-1.137.133-2.34.266-3.547.402-1.203.133-2.406.266-3.61.47l-1.003.198c-.27.067-.535.2-.871.266-.336.07-.402.336-.336.738.066.2.203.332.469.403.203.066.402.066.738.066.535 0 1.137-.137 1.672-.203.867-.066 1.805-.2 2.742-.332.871-.137 1.805-.27 2.676-.336h.535c.805 0 .871.336.535 1.34-.469 1.137-.8 2.207-1.27 3.476-2.206 6.024-5.019 15.188-5.019 21.68 0 1.535.402 3.945 2.14 3.945Zm0 0" fill="#fff"/><path d="M59.7 73.672c1.808 0 3.613-1.402 4.886-2.539 2.941-2.476 5.285-5.422 7.625-8.43.203-.203.336-.402.402-.738.067-.336 0-.601-.265-.8a.607.607 0 0 0-.469-.204.51.51 0 0 0-.336.133c-.336.27-.668.535-.937.871a38.217 38.217 0 0 0-1.54 1.875 38.153 38.153 0 0 1-1.539 1.871c-1.539 1.809-3.144 3.348-4.949 4.887-.804.602-1.539 1.07-2.543 1.27-.734 0-1.136-.067-1.336-.805-.136-.602-.203-1.203-.136-1.738.402-3.145 1.406-6.489 2.543-9.434.066-.332 0-.602-.332-.734-.204-.067-.336-.133-.47-.133-.136 0-.335.066-.534.199-1.743 1.738-2.477 7.16-2.946 10.102 0 1.003 0 1.671.27 2.41.465 1.27 1.336 1.937 2.605 1.937Zm2.007-15.855a2.01 2.01 0 0 0 1.274-1.27c.265-.535 1.671-3.48 2.007-4.148.067-.2.2-.403.266-.668v-.336c-.066-.336-.2-.535-.402-.602-.067-.066-.133-.066-.266-.066-.203 0-.336.066-.402.133-.469.265-.668.668-.871 1.136-.602 1.204-1.938 4.016-2.207 4.485-.067.265-.133.469-.133.668-.067.336.402.734.734.668Zm0 0" fill="#fff"/><path d="M73.483 73.34h.336c3.211-.336 5.887-1.406 8.63-3.21 3.277-2.141 6.222-4.618 9.167-7.094l.332-.333c.067-.07.203-.203.27-.335.199-.403.199-.739 0-1.004-.137-.2-.336-.336-.602-.336-.07 0-.203.066-.402.136a80.48 80.48 0 0 0-.602.399c-.203.203-.402.336-.601.535-1.14.871-2.278 1.809-3.414 2.676-1.137.937-2.274 1.875-3.41 2.746-2.544 1.738-5.754 3.68-8.899 4.078h-.402c-.133.07-.27.07-.403.07-2.609 0-3.746-1.472-3.011-4.351.804-3.211 2.41-5.887 4.75-7.961.468-.469 1.14-.938 1.875-.938.734 0 1.203.47 1.27 1.34.202.871-.067 1.738-.536 2.477-.066.199-.2.398-.266.601-.132.2-.203.403-.132.668 0 .2.265.403.464.403.07 0 .07 0 .07-.067h.067c.266-.066.469-.203.535-.336 1.137-1.406 1.606-2.945 1.336-4.683-.199-1.407-1.738-2.141-3.008-2.141-.87 0-1.675.336-2.476 1.004-2.945 2.61-4.684 5.687-5.688 9.434-.066.335-.132.601-.132 1.07-.204 2.875 1.136 5.152 4.882 5.152Zm0 0" fill="#fff"/><path d="M91.947 73.672c1.809 0 3.613-1.402 4.887-2.539 2.941-2.476 5.285-5.422 7.625-8.43.203-.203.336-.402.402-.738.067-.336 0-.601-.265-.8a.607.607 0 0 0-.47-.204.51.51 0 0 0-.335.133c-.336.27-.668.535-.938.871a38.217 38.217 0 0 0-1.539 1.875 38.153 38.153 0 0 1-1.539 1.871c-1.539 1.809-3.144 3.348-4.949 4.887-.805.602-1.539 1.07-2.543 1.27-.734 0-1.137-.067-1.336-.805-.137-.602-.203-1.203-.137-1.738.403-3.145 1.407-6.489 2.543-9.434.067-.332 0-.602-.332-.734-.203-.067-.336-.133-.468-.133-.137 0-.336.066-.536.199-1.742 1.738-2.476 7.16-2.945 10.102 0 1.003 0 1.671.27 2.41.464 1.27 1.336 1.937 2.605 1.937Zm1.742-17.058c.735 0 1.403-.668 1.403-1.407-.067-.734-.536-1.07-1.336-1.07-.805 0-1.203.402-1.203 1.203.066.805.535 1.34 1.136 1.274Zm0 0" fill="#fff"/><path d="M101.852 70.328c.867 0 2.004-.937 2.61-1.472 1.671-1.54 3.144-3.145 4.683-4.95.2-.203.465-.468.668-.738.2-.265.535-.465 1.004-.668-.469 1.809-.871 3.547-.871 5.352 0 1.273.535 1.941 1.672 1.941.27 0 .469 0 .601-.066 2.813-.469 7.563-4.953 9.5-6.89.07-.067.204-.204.27-.27.066-.067.066-.133.133-.2.136-.468.066-.804-.266-1.003a.617.617 0 0 0-.469-.2c-.066 0-.132.067-.336.133-.199.133-.402.266-.535.403-.199.199-.402.332-.601.535-.602.468-1.137.933-1.606 1.402-.535.469-1.07 1.004-1.672 1.473-.804.738-1.672 1.273-2.476 1.808-.602.332-1.203.602-1.805.868-.066.066-.137.066-.27.066-.265 0-.402-.2-.402-.602 0-2.875 2.074-7.761 3.348-10.3.133-.336.266-.606.469-.938.132-.27.265-.535.398-.871.203-.602.137-1.07-.332-1.336-.203-.07-.336-.137-.402-.137-.2 0-.469.137-.805.47-.2.202-.332.468-.465.667-.203.27-.336.535-.535.738-.402.535-.805 1.07-1.14 1.606-.399.535-.801 1.07-1.204 1.539-.265.336-.468.535-.601.535-.067 0-.27-.133-.602-.336-.668-.535-1.34-.8-2.008-.8-.734 0-1.472.265-2.207.866-.468.336-.804.606-1.004.872-2.007 2.007-4.214 5.953-4.214 8.898.066 1.07.601 1.605 1.472 1.605Zm.602-2.41c0-.066 0-.066-.067-.066l-.066-.066c.535-2.875 1.871-5.286 3.945-7.09.336-.336 1.137-.805 1.606-.805.336 0 .601.133.937.336.336.2.403.535.266.937-.067.2-.2.266-.266.332-1.808 2.207-3.613 4.418-5.754 6.223-.132.133-.336.2-.601.2ZM154.64 83.711c.468 0 .937-.07 1.335-.27 3.816-1.136 8.7-7.628 10.238-11.238.602-1.273 1.54-2.21 2.809-2.878a103.72 103.72 0 0 0 5.418-2.809l5.219-2.813c.27-.132.535-.265.804-.398.266-.137.535-.336.735-.535.136-.067.203-.27.203-.469 0-.203-.067-.336-.137-.535-.133-.203-.332-.336-.535-.336-.133 0-.2 0-.266.066-.199.067-.468.204-.668.27-.27.066-.535.2-.738.266l-8.898 4.683c-.2.133-.47.27-.668.403-.266.199-.536.265-.871.265h-.266c-.133-.332-.133-.668-.066-1 .066-.27.132-.605.132-.937.067-3.145-1.738-5.153-4.882-5.352-1.137 0-2.211 0-3.282.266-1 .199-1.937.402-2.941.601-1.004.203-2.008.469-3.012.668-.535.07-1.07.203-1.605.27-.535.133-1.07.265-1.606.336h-.336c-.133.066-.265.066-.398.066-2.344 0-3.75-1.273-4.215-3.883-.336-1.672-.203-3.343.266-5.148 2.343-8.23 7.093-14.652 14.25-19.27 2.074-1.34 4.953-2.476 7.425-2.476 2.88 0 5.356 1.203 5.356 4.418 0 3.68-4.149 11.238-8.031 11.906-.067.066-.133.066-.2.066-.066 0-.199.067-.27.137-.331.266-.468.535-.398.867.067.535.536.602 1.004.602 2.07 0 3.813-1.738 5.082-3.145 1.942-2.609 3.348-5.351 4.215-8.363.27-.8.336-1.672.27-2.605-.203-3.817-3.48-5.621-7.094-5.621-3.211 0-6.422 1.406-9.098 3.21-6.422 4.282-12.379 12.176-14.117 19.668-.601 2.344-.805 4.618-.2 6.961.802 2.942 2.942 4.348 5.888 4.348 1.406 0 2.875-.336 4.214-.602 1.004-.203 2.075-.468 3.145-.668 1.004-.203 2.074-.468 3.078-.671.668-.133 1.402-.2 2.14-.2 2.61.067 3.813 1.407 3.548 4.149-.203 1.539-.672 3.078-2.008 3.879-.871.468-1.742 1.004-2.543 1.472-.871.536-1.672 1.07-2.543 1.54-2.477 1.539-5.555 4.081-7.09 6.69-.605 1.138-.535 2.208.332 3.278.469.602 1.137.871 1.875.871Zm.132-1.742c-.2 0-.469-.133-.668-.332-.27-.336-.336-.672-.27-1.004 1.07-2.879 6.825-6.492 9.704-8.097-1.274 3.546-4.215 7.027-7.094 8.699-.469.265-.867.468-1.336.668-.067.066-.203.066-.336.066Zm0 0" fill="#fff"/><path d="M178.39 70.328c.868 0 2.004-.937 2.61-1.472 1.672-1.54 3.144-3.145 4.683-4.95.2-.203.465-.468.668-.738.2-.265.536-.465 1.004-.668-.468 1.809-.87 3.547-.87 5.352 0 1.273.534 1.941 1.671 1.941.27 0 .469 0 .602-.066 2.812-.469 7.562-4.953 9.5-6.89.07-.067.203-.204.27-.27.066-.067.066-.133.132-.2.137-.468.066-.804-.266-1.003a.617.617 0 0 0-.468-.2c-.067 0-.133.067-.336.133-.2.133-.403.266-.535.403-.2.199-.403.332-.602.535-.602.468-1.137.933-1.605 1.402-.536.469-1.07 1.004-1.672 1.473-.805.738-1.672 1.273-2.477 1.808-.601.332-1.203.602-1.805.868-.066.066-.136.066-.27.066-.265 0-.401-.2-.401-.602 0-2.875 2.074-7.761 3.347-10.3.133-.336.266-.606.469-.938.133-.27.266-.535.398-.871.203-.602.137-1.07-.332-1.336-.203-.07-.336-.137-.402-.137-.2 0-.469.137-.805.47-.199.202-.332.468-.465.667-.203.27-.335.535-.535.738-.402.535-.804 1.07-1.14 1.606-.399.535-.801 1.07-1.203 1.539-.266.336-.47.535-.602.535-.066 0-.27-.133-.602-.336-.668-.535-1.34-.8-2.007-.8-.735 0-1.473.265-2.207.866-.47.336-.805.606-1.004.872-2.008 2.007-4.215 5.953-4.215 8.898.066 1.07.601 1.605 1.472 1.605Zm.602-2.41c0-.066 0-.066-.066-.066l-.067-.066c.535-2.875 1.871-5.286 3.946-7.09.335-.336 1.136-.805 1.605-.805.336 0 .602.133.938.336.335.2.402.535.265.937-.066.2-.2.266-.265.332-1.81 2.207-3.614 4.418-5.754 6.223-.133.133-.336.2-.602.2Zm0 0" fill="#fff"/><path d="M195.785 75.414c.332 0 .602-.136.867-.402.739-.601 1.004-1.34 1.473-2.14 1.07-1.876 2.14-3.813 3.21-5.754.872-1.54 1.81-3.012 2.946-4.348.2-.203.336-.469.535-.805.2-.265.403-.336.668-.265.336.066.535.332.469.668-.066.335-.133.668-.133.937 0 1.004-.066 2.004-.133 3.008 0 1.07 0 2.008.47 3.012.331.468.667.668 1.136.668.066 0 .265-.067.535-.133a4.24 4.24 0 0 0 1.27-.871c.335-.332.738-.735 1.07-1.07.469-.466 1.004-1 1.473-1.47.468-.468 1.003-.937 1.605-1.273.336.203.602.535.734.871.07.336.27.668.47 1.004.737 1.137 1.675 1.672 2.812 1.672.535 0 1.07-.066 1.539-.27.933-.464 1.738-.933 2.406-1.468l4.016-3.414c.332-.266.668-.602.937-.938.469-.469.469-.867.066-1.27-.136-.199-.335-.335-.601-.335-.203 0-.402.136-.738.336-.067.199-.2.265-.266.336a134.867 134.867 0 0 1-4.484 3.878c-.602.47-2.008 1.407-2.875 1.407-.403 0-.805-.203-1.137-.602a4.7 4.7 0 0 1-.672-1.14l-.2-.602c-.066-.2-.202-.402-.335-.602-.266-.601-.735-.87-1.336-.87-.066 0-.336.07-.672.136-.398.2-.8.469-1.27.8-.335.337-.734.74-1.07 1.071-.402.336-.804.738-1.137 1.07l-1.273 1.207c-.066 0-.066 0-.133.067-.336 0-.535-.137-.535-.402v-.735c-.066-.27-.066-.535-.066-.805.066-.535.066-1.07.132-1.605.067-.535.067-1.07.067-1.672.066-.805.066-1.605-.266-2.344-.203-.601-.601-.933-1.203-.933-.203 0-.469.066-.738.199-1.805 1.27-3.277 3.277-4.414 5.086-.602.934-1.137 1.871-1.672 2.809a116.954 116.954 0 0 1-1.61 2.875c-.066.07-.132.203-.199.335-.066.133-.132.2-.336.2-.132 0-.265 0-.332-.067.067-.133.067-.265.067-.398-.067-.137-.067-.27 0-.469 1.136-5.355 2.676-10.707 5.015-15.59.137-.336.27-.601.47-.937.136-.266.136-.602.07-.938-.07-.199-.403-.535-.606-.535-.066 0-.2.067-.398.137-1.473.734-4.418 10.367-4.954 12.11-1.003 3.41-1.804 6.956-1.804 10.503 0 .535.265.867.734 1.004.067.066.203.066.336.066Zm0 0" fill="#fff"/><path d="M219.738 92.809c.601 0 .933-.27 1.136-.805.2-.601.399-1.203.536-1.672 2.34-8.629 8.562-23.347 15.386-29.304.735-.735 1.54-1.27 2.543-1.739.067-.066.2-.066.403-.066.332 0 .601.2.734.668.133.602.133 1.203.066 1.738-.066.606-.199 1.14-.265 1.742-.07 1.004-.535 1.872-1.54 2.477-2.609 1.672-7.827 5.887-8.163 9.031-.2 1.27.601 2.14 1.672 2.14.335 0 .671-.066 1.003-.269 3.012-1.203 6.493-6.02 7.563-9.03.469-1.138 1.203-2.009 2.273-2.477.668-.266 1.34-.536 2.008-.868.668-.336 1.336-.601 2.008-.87.602-.2 1.137-.47 1.738-.669.602-.203 1.137-.402 1.739-.601.468-.137.601-.403.535-.871-.067-.47-.469-.805-.938-.735-.199 0-.398.067-.668.133-.332.066-.601.2-.8.266l-4.684 1.808c-.203.067-.402.2-.602.266-.203.066-.402.203-.605.27-.067.066-.133.066-.266.066-.336 0-.469-.2-.402-.602.203-1.273.402-2.41-.067-3.68-.335-1.206-1.003-1.808-2.007-1.808-.266 0-.602.066-1.004.203-1.938.469-4.149 2.406-6.223 5.016-1 1.273-2.004 2.742-3.008 4.281-1.941 3.145-3.613 6.223-4.886 8.898-.668 1.407-1.204 2.543-1.606 3.48-.2.47-.332 1.005-.933 1.34-.07-.605 0-1.14.132-1.675.133-.535.266-1.07.332-1.54 1.809-8.628 4.149-16.991 7.563-25.085.066-.203.133-.336.133-.402.203-.47.066-.805-.266-.938-.066-.066-.203-.066-.27-.066-.335 0-.535.133-.667.402-1.274 2.274-3.079 7.156-3.95 9.7a138.407 138.407 0 0 0-6.086 27.964 19.462 19.462 0 0 0-.203 2.813c0 .601.203.937.606 1.07Zm13.11-17.863a.503.503 0 0 1-.267-.133c-.132-.07-.132-.27-.066-.606 1.54-2.207 3.078-4.214 5.484-5.484.067-.2.204-.2.27-.133.133.133.066.266-.133.332-1.004 2.61-2.812 4.352-4.953 5.89-.2.067-.266.134-.336.134Zm0 0" fill="#fff"/><path d="M248.105 70.328c.867 0 2.003-.937 2.609-1.472 1.672-1.54 3.144-3.145 4.684-4.95.199-.203.464-.468.667-.738.2-.265.536-.465 1.004-.668-.468 1.809-.87 3.547-.87 5.352 0 1.273.534 1.941 1.671 1.941.27 0 .469 0 .602-.066 2.812-.469 7.562-4.953 9.5-6.89.07-.067.203-.204.27-.27.066-.067.066-.133.132-.2.137-.468.066-.804-.266-1.003a.617.617 0 0 0-.468-.2c-.067 0-.133.067-.336.133-.2.133-.403.266-.535.403-.2.199-.403.332-.602.535-.602.468-1.137.933-1.605 1.402-.536.469-1.07 1.004-1.672 1.473-.805.738-1.672 1.273-2.477 1.808-.601.332-1.203.602-1.805.868-.066.066-.136.066-.27.066-.265 0-.401-.2-.401-.602 0-2.875 2.074-7.761 3.347-10.3.133-.336.266-.606.469-.938.133-.27.266-.535.398-.871.204-.602.137-1.07-.332-1.336-.203-.07-.336-.137-.402-.137-.2 0-.469.137-.805.47-.199.202-.332.468-.464.667-.204.27-.336.535-.536.738-.402.535-.804 1.07-1.14 1.606-.399.535-.801 1.07-1.203 1.539-.266.336-.47.535-.602.535-.066 0-.27-.133-.602-.336-.667-.535-1.34-.8-2.007-.8-.735 0-1.473.265-2.207.866-.47.336-.805.606-1.004.872-2.008 2.007-4.215 5.953-4.215 8.898.066 1.07.601 1.605 1.473 1.605Zm.601-2.41c0-.066 0-.066-.066-.066l-.067-.066c.535-2.875 1.871-5.286 3.946-7.09.336-.336 1.136-.805 1.605-.805.336 0 .602.133.938.336.336.2.402.535.265.937-.066.2-.199.266-.265.332-1.809 2.207-3.614 4.418-5.754 6.223-.133.133-.336.2-.602.2Zm0 0" fill="#fff"/><path d="M267.972 73.672c1.808 0 3.613-1.402 4.886-2.539 2.942-2.476 5.286-5.422 7.625-8.43.204-.203.336-.402.403-.738.066-.336 0-.601-.266-.8a.607.607 0 0 0-.469-.204.51.51 0 0 0-.335.133c-.336.27-.668.535-.938.871a38.217 38.217 0 0 0-1.54 1.875 38.153 38.153 0 0 1-1.538 1.871c-1.54 1.809-3.145 3.348-4.95 4.887-.804.602-1.538 1.07-2.542 1.27-.735 0-1.137-.067-1.336-.805-.137-.602-.203-1.203-.137-1.738.402-3.145 1.406-6.489 2.543-9.434.066-.332 0-.602-.332-.734-.203-.067-.336-.133-.469-.133-.136 0-.336.066-.535.199-1.742 1.738-2.476 7.16-2.945 10.102 0 1.003 0 1.671.27 2.41.464 1.27 1.335 1.937 2.605 1.937Zm1.742-17.058c.734 0 1.402-.668 1.402-1.407-.066-.734-.535-1.07-1.336-1.07-.804 0-1.203.402-1.203 1.203.067.805.535 1.34 1.137 1.274Zm0 0" fill="#fff"/><path d="M280.35 72.739c.601 0 1.273-.203 1.875-.536.87-.605 1.539-1.34 2.007-2.343.602-1.27.735-2.543.47-3.813-.204-1.136-.27-1.136 1.003-1.34 1.402-.132 2.676-.468 3.945-.933 1.203-.469 2.477-.871 3.746-1.34.602-.2.739-.602.536-1.07-.2-.336-.536-.536-.868-.536l-1.07.266c-.605.203-1.207.469-1.809.672-.601.2-1.27.469-1.87.668-1.274.402-2.477.602-3.75.602h-2.075c-.465.066-.867.535-.668 1.003.203.47.403.872.668 1.34 1.004 1.54.672 2.942-.2 4.348-.6 1.07-1.269 1.203-2.339 1.203-.871-.2-1.34-1.004-1.34-2.273 0-.739.067-1.407.27-1.942.265-1.137.734-2.273 1.336-3.41.734-1.14 1.34-2.277 2.879-2.543.464-.066.464-.402.398-.871-.066-.332-.266-.602-.734-.668a1.87 1.87 0 0 0-.871.2c-2.61 1.003-4.817 6.023-5.016 8.765-.066.535 0 1.137.133 1.738.336 1.809 1.738 2.813 3.344 2.813ZM66.4 121.392c-1.531 0-2.918-.336-4.156-1.016a7.545 7.545 0 0 1-2.922-2.843c-.7-1.207-1.047-2.563-1.047-4.063 0-1.488.348-2.836 1.047-4.047a7.48 7.48 0 0 1 2.922-2.828c1.25-.687 2.644-1.031 4.187-1.031 1.157 0 2.22.195 3.188.578.976.387 1.812.95 2.5 1.687l-1.047 1.047c-1.219-1.226-2.75-1.843-4.594-1.843-1.23 0-2.351.28-3.36.843a6.171 6.171 0 0 0-2.374 2.313c-.563.98-.844 2.074-.844 3.281 0 1.219.281 2.32.844 3.297.57.98 1.363 1.75 2.375 2.312 1.008.563 2.129.844 3.36.844 1.862 0 3.394-.625 4.593-1.875l1.047 1.047a6.823 6.823 0 0 1-2.516 1.703c-.98.399-2.047.594-3.203.594ZM88.031 121.251l-3.563-5a11.5 11.5 0 0 1-1.234.063h-4.187v4.937h-1.641v-15.547h5.828c1.977 0 3.531.477 4.656 1.422 1.125.95 1.688 2.25 1.688 3.907 0 1.21-.309 2.234-.922 3.078-.617.836-1.492 1.437-2.625 1.812l3.797 5.328Zm-4.844-6.328c1.54 0 2.719-.336 3.531-1.015.813-.688 1.22-1.645 1.22-2.875 0-1.258-.407-2.223-1.22-2.891-.812-.676-1.992-1.016-3.53-1.016h-4.141v7.797ZM101.079 105.704c1.976 0 3.531.477 4.656 1.422 1.125.95 1.688 2.25 1.688 3.907 0 1.656-.563 2.96-1.688 3.906-1.125.937-2.68 1.406-4.656 1.406H96.89v4.906h-1.64v-15.547Zm-.047 9.188c1.54 0 2.719-.332 3.531-1 .813-.676 1.219-1.629 1.219-2.86 0-1.257-.406-2.222-1.219-2.89-.812-.676-1.992-1.016-3.531-1.016h-4.14v7.766ZM125.413 121.392c-1.211 0-2.282-.316-3.22-.953-.937-.645-1.67-1.563-2.202-2.75-.524-1.195-.781-2.602-.781-4.219 0-1.613.257-3.016.78-4.203.532-1.195 1.266-2.113 2.204-2.75.937-.633 2.008-.953 3.219-.953 1.195 0 2.265.32 3.203.953.937.637 1.672 1.555 2.203 2.75.539 1.187.812 2.59.812 4.203 0 1.617-.273 3.024-.812 4.219-.531 1.187-1.266 2.105-2.203 2.75-.938.637-2.008.953-3.203.953Zm0-1.469c.894 0 1.687-.25 2.375-.75.695-.508 1.238-1.242 1.625-2.203.383-.969.578-2.133.578-3.5 0-1.363-.195-2.523-.578-3.484-.387-.957-.93-1.688-1.625-2.188-.688-.508-1.48-.765-2.375-.765-.907 0-1.703.257-2.39.765-.688.5-1.227 1.23-1.61 2.188-.387.96-.578 2.12-.578 3.484 0 1.367.191 2.531.578 3.5.383.961.922 1.695 1.61 2.203.687.5 1.483.75 2.39.75ZM142.136 111.939c1.02 0 1.926.195 2.719.578.8.387 1.422.934 1.86 1.64.445.7.671 1.516.671 2.454 0 .949-.23 1.789-.687 2.515a4.594 4.594 0 0 1-1.906 1.672c-.805.399-1.711.594-2.72.594-2.062 0-3.64-.676-4.734-2.031-1.093-1.364-1.64-3.282-1.64-5.75 0-1.739.297-3.207.89-4.407.594-1.195 1.422-2.101 2.485-2.718 1.062-.614 2.304-.922 3.734-.922 1.54 0 2.77.281 3.688.844l-.641 1.296c-.742-.488-1.75-.734-3.031-.734-1.719 0-3.07.547-4.047 1.64-.969 1.087-1.453 2.665-1.453 4.735 0 .367.02.79.062 1.266.383-.844 1-1.5 1.844-1.969.844-.469 1.813-.703 2.906-.703Zm-.125 8.094c1.125 0 2.035-.305 2.735-.922.707-.614 1.062-1.43 1.062-2.453 0-1.02-.355-1.832-1.062-2.438-.7-.613-1.649-.922-2.844-.922-.793 0-1.492.153-2.094.453-.594.293-1.062.7-1.406 1.22a3.063 3.063 0 0 0-.5 1.718c0 .594.156 1.148.469 1.656.32.5.789.906 1.406 1.219.625.312 1.367.469 2.234.469ZM156.635 102.548h1.438l-7.328 20.922h-1.454ZM164.545 105.704v15.547h-1.61v-14.125h-3.656v-1.422ZM174.877 105.564c2.062 0 3.64.68 4.734 2.031 1.094 1.356 1.64 3.274 1.64 5.75 0 1.73-.296 3.2-.89 4.406-.594 1.2-1.422 2.106-2.484 2.72-1.063.616-2.31.921-3.735.921-1.543 0-2.773-.285-3.687-.86l.64-1.28c.739.492 1.75.734 3.032.734 1.718 0 3.062-.54 4.03-1.625.977-1.094 1.47-2.676 1.47-4.75 0-.383-.024-.805-.063-1.266-.387.844-1 1.5-1.844 1.969-.843.46-1.812.687-2.906.687-1.023 0-1.934-.191-2.734-.578-.793-.383-1.414-.926-1.86-1.625-.437-.707-.656-1.523-.656-2.453 0-.945.227-1.785.688-2.516a4.47 4.47 0 0 1 1.89-1.671c.813-.395 1.723-.594 2.735-.594Zm.171 8.094c.79 0 1.485-.145 2.079-.438.601-.3 1.07-.71 1.406-1.234.344-.52.515-1.098.515-1.735 0-.593-.164-1.14-.484-1.64-.312-.5-.781-.907-1.406-1.219-.617-.313-1.356-.469-2.219-.469-1.125 0-2.043.309-2.75.922-.7.617-1.047 1.434-1.047 2.453 0 1.024.348 1.84 1.047 2.453.707.606 1.66.907 2.86.907ZM190.625 112.36c1.633.094 2.875.54 3.72 1.329.85.793 1.28 1.824 1.28 3.094 0 .886-.214 1.68-.64 2.375-.43.687-1.063 1.234-1.906 1.64-.844.399-1.875.594-3.094.594a9.172 9.172 0 0 1-3.188-.547c-1-.363-1.804-.848-2.406-1.453l.781-1.281c.508.543 1.192.98 2.047 1.312.863.336 1.785.5 2.766.5 1.27 0 2.254-.273 2.953-.828.695-.562 1.047-1.332 1.047-2.312 0-.957-.352-1.707-1.047-2.25-.7-.551-1.75-.829-3.156-.829h-1.11v-1.187l4.313-5.39h-7.953v-1.423h10v1.125ZM203.75 112.08c2.25 0 3.882.406 4.906 1.218 1.03.805 1.546 1.93 1.546 3.375 0 .906-.214 1.715-.64 2.422-.418.711-1.047 1.274-1.89 1.688-.845.406-1.884.609-3.11.609a9.076 9.076 0 0 1-3.156-.547c-1-.363-1.809-.848-2.422-1.453l.781-1.281c.52.543 1.203.98 2.047 1.312.844.336 1.754.5 2.734.5 1.281 0 2.274-.285 2.985-.86.707-.581 1.062-1.359 1.062-2.327 0-1.063-.402-1.864-1.203-2.407-.793-.55-2.125-.828-4-.828h-3.313l.797-7.797h8.516v1.422h-7.11l-.53 4.953ZM220.215 121.392c-1.211 0-2.282-.316-3.22-.953-.937-.645-1.671-1.563-2.202-2.75-.524-1.195-.782-2.602-.782-4.219 0-1.613.258-3.016.782-4.203.53-1.195 1.265-2.113 2.203-2.75.937-.633 2.008-.953 3.219-.953 1.195 0 2.265.32 3.203.953.937.637 1.672 1.555 2.203 2.75.539 1.187.812 2.59.812 4.203 0 1.617-.273 3.024-.812 4.219-.531 1.187-1.266 2.105-2.203 2.75-.938.637-2.008.953-3.203.953Zm0-1.469c.894 0 1.687-.25 2.375-.75.695-.508 1.238-1.242 1.625-2.203.382-.969.578-2.133.578-3.5 0-1.363-.196-2.523-.578-3.484-.387-.957-.93-1.688-1.625-2.188-.688-.508-1.48-.765-2.375-.765-.907 0-1.704.257-2.391.765-.688.5-1.227 1.23-1.61 2.188-.386.96-.578 2.12-.578 3.484 0 1.367.192 2.531.579 3.5.382.961.921 1.695 1.609 2.203.687.5 1.484.75 2.39.75ZM236.938 111.939c1.02 0 1.926.195 2.719.578.8.387 1.422.934 1.86 1.64.445.7.671 1.516.671 2.454 0 .949-.23 1.789-.687 2.515a4.594 4.594 0 0 1-1.907 1.672c-.804.399-1.71.594-2.718.594-2.063 0-3.641-.676-4.735-2.031-1.093-1.364-1.64-3.282-1.64-5.75 0-1.739.297-3.207.89-4.407.594-1.195 1.422-2.101 2.485-2.718 1.062-.614 2.304-.922 3.734-.922 1.54 0 2.77.281 3.688.844l-.641 1.296c-.742-.488-1.75-.734-3.031-.734-1.72 0-3.07.547-4.047 1.64-.969 1.087-1.453 2.665-1.453 4.735 0 .367.02.79.062 1.266.383-.844 1-1.5 1.844-1.969.844-.469 1.812-.703 2.906-.703Zm-.125 8.094c1.125 0 2.035-.305 2.735-.922.707-.614 1.062-1.43 1.062-2.453 0-1.02-.355-1.832-1.062-2.438-.7-.613-1.649-.922-2.844-.922-.793 0-1.492.153-2.094.453-.594.293-1.062.7-1.406 1.22a3.063 3.063 0 0 0-.5 1.718c0 .594.156 1.148.469 1.656.32.5.789.906 1.406 1.219.625.312 1.367.469 2.234.469Zm0 0" fill="#fff"/></svg>