<svg width="160" height="40" viewBox="0 0 160 40" fill="none" xmlns="http://www.w3.org/2000/svg">
<path d="M0.562128 21.667C0.674091 21.667 0.788249 21.667 0.86289 21.639C1.05169 21.611 1.23829 21.5534 1.42709 21.4975C1.6137 21.4136 1.8025 21.356 1.9913 21.2721C3.23167 20.8494 4.54668 20.596 5.86388 20.4545C8.08118 20.2292 10.1492 19.864 12.2567 19.4971C12.5948 19.4692 13.1963 19.3557 13.1963 19.0464C13.2337 18.849 13.0449 18.6516 12.7814 18.6795C12.6321 18.6795 12.4433 18.7371 12.294 18.7651C10.6761 19.0184 9.09762 19.2997 7.47965 19.5251C6.54005 19.6666 5.56312 19.7784 4.62351 19.9199C3.64439 20.0318 2.70478 20.2292 1.76518 20.5401C1.65321 20.5681 1.57638 20.5681 1.53906 20.5401C1.42709 20.5401 1.38977 20.5121 1.38977 20.4266C1.50174 20.1732 1.57638 19.9479 1.69053 19.7225C3.19434 16.1445 4.7728 12.6504 6.39076 9.12839C7.02961 7.77616 7.78042 6.45189 8.64538 5.15559L9.54767 3.74743C9.66183 3.60596 9.69915 3.49409 9.66183 3.29669C9.62451 3.18318 9.54767 3.12725 9.43571 3.12725C9.32374 3.09928 9.24691 3.09928 9.20959 3.12725C8.75954 3.32465 7.66845 5.09966 7.17889 5.94522C6.69153 6.79077 5.56312 8.84708 5.37432 9.18432C4.43471 11.0728 3.56975 12.9893 2.77943 14.9042C1.9913 16.8486 1.08901 18.7651 0.149403 20.6799L0.0352457 21.0468C-0.0767165 21.4695 0.0725663 21.667 0.562128 21.667Z" fill="white"/>
<path d="M12.3308 18.3143C14.9257 18.3143 18.8729 15.4404 20.6775 14.0026C20.829 13.8908 20.9409 13.8052 20.9783 13.7213C21.0924 13.5799 21.0551 13.44 20.8663 13.2986C20.7916 13.2426 20.7148 13.2147 20.6028 13.2147C20.5282 13.2147 20.414 13.2426 20.3021 13.2986C20.1901 13.3825 20.076 13.468 19.964 13.5519C19.8498 13.6358 19.7006 13.7213 19.5886 13.8052C19.1364 14.1161 18.6863 14.4254 18.2714 14.7347C17.8213 15.0456 17.3691 15.3828 16.9191 15.6937C15.828 16.4538 14.098 17.3552 12.5942 17.5806C11.8786 17.5806 11.4658 17.5806 11.3165 16.9325C11.1277 16.5673 11.0904 16.2564 11.2024 15.9471C11.2397 15.8056 11.3539 15.7217 11.5031 15.6937C13.3077 15.5523 15.6765 13.8908 15.9773 12.5089C16.0914 11.8608 15.6019 11.4676 14.851 11.4676C14.8115 11.4676 14.7369 11.4676 14.6996 11.4676C14.6622 11.4956 14.5876 11.4956 14.5503 11.4956C12.5569 11.721 11.0904 13.6934 10.4516 15.0176C10.3001 15.4404 10.1508 15.8336 10.1881 16.3139C10.1508 16.6232 10.2628 16.9621 10.4121 17.2713C10.6755 17.9754 11.3165 18.3143 12.3308 18.3143ZM11.9927 14.8482C11.9554 14.8762 11.8786 14.8482 11.7666 14.8202C11.7293 14.8202 11.6919 14.7643 11.6919 14.6788C12.1047 13.8052 13.3846 12.3971 14.6249 12.2556C14.8115 12.2276 14.9257 12.2836 14.963 12.481C14.963 13.3825 12.9696 14.4534 11.9927 14.8482Z" fill="white"/>
<path d="M19.8127 21.4975C20.4142 21.4975 21.1299 21.1027 21.468 20.7655C22.6711 19.7225 24.0256 18.3423 25.266 17.074C26.3175 16.003 27.7094 14.5669 28.4624 13.8908C28.537 13.8332 28.5743 13.7773 28.5743 13.7214C28.6863 13.5519 28.649 13.4105 28.4624 13.2986C28.3482 13.2706 28.2736 13.2427 28.1989 13.2427C28.1616 13.2427 28.1616 13.2427 28.1221 13.2427C28.0848 13.2706 28.0848 13.2706 28.0475 13.2706C27.8609 13.3266 27.7094 13.4105 27.5974 13.496C27.4833 13.6079 27.334 13.7214 27.2198 13.8332C26.1309 14.6508 22.8203 18.3703 21.2419 19.864C21.0531 20.0318 20.8665 20.2012 20.6777 20.3707C20.4911 20.5121 20.265 20.624 19.9269 20.652C19.3627 20.3147 19.5493 19.8064 19.5888 19.3836C19.7008 18.3982 19.85 17.4968 20.1508 16.5673C20.6404 14.9321 22.5964 10.4527 23.4614 9.01653C23.648 8.64968 24.0256 8.48024 24.5503 8.45227L32.6357 7.91763C32.8223 7.88967 32.9738 7.88967 33.1231 7.86006C33.2746 7.86006 33.4239 7.83209 33.6127 7.80412C33.7641 7.77616 33.8388 7.66265 33.8388 7.52282C33.8015 7.32541 33.6873 7.24152 33.538 7.24152H32.1835C31.1319 7.32541 30.0035 7.40931 28.7631 7.46689C27.5206 7.55079 26.3944 7.63468 25.3406 7.72023C25.3033 7.72023 25.2286 7.72023 25.1518 7.72023C25.0772 7.74819 25.0025 7.74819 24.9279 7.74819C24.7764 7.74819 24.6271 7.72023 24.4383 7.69226C24.4383 7.55079 24.4756 7.40931 24.5503 7.29745C24.5876 7.21191 24.6644 7.10004 24.7018 7.01615C25.1913 6.25449 25.6787 5.52244 26.0936 4.76078C26.2802 4.50745 26.3175 4.28207 26.2802 4.14224C26.2056 4.00077 26.0936 3.94484 25.9421 3.94484C25.6787 3.94484 25.4152 4.11263 25.1518 4.45151C24.9652 4.67689 24.7764 4.90226 24.6271 5.12763C24.4383 5.353 24.2868 5.57837 24.1002 5.80374L23.0838 7.49485C22.8972 7.80412 22.5964 7.9456 22.1442 7.97356C21.5053 8.0295 20.8292 8.08543 20.1508 8.143C19.4746 8.19894 18.7985 8.25487 18.1223 8.34041C17.9335 8.36838 17.7447 8.39634 17.5581 8.42431C17.4066 8.45227 17.2573 8.50821 17.0685 8.53617C16.8797 8.56578 16.8424 8.67765 16.8797 8.84709C16.9171 8.93098 16.9939 8.98691 17.1432 9.01653C17.2573 9.04449 17.3693 9.04449 17.5581 9.04449C17.8589 9.04449 18.197 8.98691 18.4977 8.95895C18.9851 8.93098 19.512 8.87505 20.0388 8.81912C20.5284 8.76154 21.0531 8.70561 21.5427 8.67765H21.8434C22.2957 8.67765 22.333 8.81912 22.1442 9.2419C21.8807 9.72061 21.6941 10.1713 21.4307 10.706C20.1903 13.2427 18.6097 17.1019 18.6097 19.836C18.6097 20.4825 18.8358 21.4975 19.8127 21.4975Z" fill="white"/>
<path d="M28.31 18.4821C29.3265 18.4821 30.3407 17.8915 31.0564 17.4128C32.7095 16.3699 34.0267 15.1295 35.3417 13.8628C35.4559 13.7773 35.5305 13.6934 35.5678 13.5519C35.6051 13.4104 35.5678 13.2986 35.4185 13.2147C35.3417 13.1571 35.2671 13.1291 35.1551 13.1291C35.0783 13.1291 35.0036 13.1571 34.9663 13.1851C34.7775 13.2986 34.5909 13.4104 34.4394 13.5519C34.1386 13.8052 33.8379 14.0882 33.5744 14.3415C33.311 14.5949 33.0102 14.8762 32.7095 15.1295C31.8445 15.8912 30.9422 16.5393 29.928 17.1875C29.4757 17.4408 29.063 17.6382 28.4988 17.7221C28.0861 17.7221 27.86 17.6941 27.748 17.3832C27.6712 17.1299 27.6338 16.8765 27.6712 16.6512C27.8973 15.3269 28.4615 13.9187 29.1003 12.6784C29.1377 12.5386 29.1003 12.425 28.9137 12.3691C28.7996 12.3411 28.7249 12.3132 28.6503 12.3132C28.5735 12.3132 28.4615 12.3411 28.3495 12.3971C27.3704 13.1291 26.9577 15.4125 26.6942 16.6512C26.6942 17.074 26.6942 17.3553 26.8457 17.6662C27.107 18.2008 27.5965 18.4821 28.31 18.4821ZM29.4384 11.8049C29.7765 11.721 30.0399 11.5236 30.1541 11.2702C30.3034 11.0448 31.0937 9.80448 31.2825 9.52318C31.3198 9.43928 31.3945 9.35374 31.4318 9.24187V9.1004C31.3945 8.95892 31.3198 8.87503 31.2057 8.84706C31.1684 8.8191 31.131 8.81909 31.0564 8.81909C30.9422 8.81909 30.8676 8.84706 30.8303 8.87503C30.5668 8.98689 30.4549 9.15633 30.3407 9.35374C30.0026 9.86041 29.2518 11.0448 29.1003 11.2423C29.063 11.3541 29.0257 11.4397 29.0257 11.5236C28.9884 11.665 29.2518 11.8328 29.4384 11.8049Z" fill="white"/>
<path d="M36.0569 18.3423H36.2457C38.0502 18.2008 39.5541 17.7501 41.0952 16.9901C42.9371 16.0886 44.5924 15.0456 46.2477 14.0027C46.285 13.9747 46.3596 13.9188 46.4343 13.8628C46.4716 13.8332 46.5484 13.7773 46.5857 13.7213C46.6977 13.5519 46.6977 13.4104 46.5857 13.2986C46.5089 13.2147 46.3969 13.1571 46.2477 13.1571C46.2081 13.1571 46.1335 13.1851 46.0215 13.2147C45.9074 13.2706 45.7954 13.3265 45.6835 13.3825C45.5693 13.468 45.4573 13.5239 45.3454 13.6078C44.7043 13.9747 44.0655 14.3695 43.4266 14.7347C42.7878 15.1295 42.149 15.5243 41.5101 15.8912C40.0809 16.6232 38.2764 17.4408 36.5091 17.6086C36.4323 17.6086 36.3576 17.6086 36.283 17.6086C36.2084 17.6382 36.1315 17.6382 36.0569 17.6382C34.5904 17.6382 33.9515 17.018 34.3643 15.8056C34.8165 14.4534 35.7188 13.3265 37.0338 12.453C37.2972 12.2556 37.6748 12.0582 38.0876 12.0582C38.5003 12.0582 38.7637 12.2556 38.8011 12.6225C38.9152 12.9893 38.7637 13.3545 38.5003 13.6654C38.463 13.7493 38.3883 13.8332 38.351 13.9188C38.2764 14.0027 38.2369 14.0882 38.2764 14.2001C38.2764 14.284 38.4257 14.3695 38.5376 14.3695C38.5771 14.3695 38.5771 14.3695 38.5771 14.3415C38.5771 14.3415 38.5771 14.3415 38.6145 14.3415C38.7637 14.3136 38.8779 14.256 38.9152 14.2001C39.5541 13.6078 39.8175 12.9597 39.666 12.2276C39.5541 11.6354 38.6891 11.3262 37.9756 11.3262C37.486 11.3262 37.0338 11.4676 36.5838 11.7489C34.9285 12.8478 33.9515 14.1441 33.3873 15.7217C33.35 15.8632 33.3127 15.9751 33.3127 16.1725C33.1985 17.3832 33.9515 18.3423 36.0569 18.3423Z" fill="white"/>
<path d="M46.4337 18.4821C47.4501 18.4821 48.4644 17.8916 49.18 17.4128C50.8331 16.3699 52.1503 15.1295 53.4653 13.8628C53.5795 13.7773 53.6541 13.6934 53.6915 13.5519C53.7288 13.4104 53.6915 13.2986 53.5422 13.2147C53.4653 13.1571 53.3907 13.1291 53.2787 13.1291C53.2019 13.1291 53.1273 13.1571 53.0899 13.1851C52.9011 13.2986 52.7145 13.4104 52.5631 13.5519C52.2623 13.8053 51.9615 14.0882 51.6981 14.3415C51.4346 14.5949 51.1339 14.8762 50.8331 15.1295C49.9682 15.8912 49.0659 16.5393 48.0516 17.1875C47.5994 17.4408 47.1867 17.6382 46.6225 17.7221C46.2097 17.7221 45.9836 17.6941 45.8716 17.3832C45.7948 17.1299 45.7575 16.8766 45.7948 16.6512C46.0209 15.3269 46.5851 13.9188 47.224 12.6784C47.2613 12.5386 47.224 12.4251 47.0374 12.3691C46.9232 12.3412 46.8486 12.3132 46.7739 12.3132C46.6971 12.3132 46.5851 12.3412 46.4732 12.3971C45.4941 13.1291 45.0813 15.4125 44.8179 16.6512C44.8179 17.074 44.8179 17.3553 44.9694 17.6662C45.2306 18.2008 45.7202 18.4821 46.4337 18.4821ZM47.4128 11.2982C47.8255 11.2982 48.2009 11.0169 48.2009 10.706C48.1636 10.3967 47.9001 10.2552 47.4501 10.2552C46.9979 10.2552 46.7739 10.4247 46.7739 10.7619C46.8113 11.1008 47.0747 11.3262 47.4128 11.2982Z" fill="white"/>
<path d="M52.0004 17.074C52.4878 17.074 53.1266 16.6792 53.4669 16.4538C54.4065 15.8056 55.2342 15.1295 56.0991 14.3695C56.2111 14.284 56.3604 14.1721 56.4745 14.0586C56.5865 13.9467 56.7753 13.8628 57.0387 13.7773C56.7753 14.539 56.5492 15.271 56.5492 16.031C56.5492 16.5673 56.8499 16.8486 57.4888 16.8486C57.6403 16.8486 57.7522 16.8486 57.8269 16.8206C59.4075 16.6232 62.0771 14.7347 63.166 13.9188C63.2055 13.8908 63.2801 13.8332 63.3174 13.8053C63.3548 13.7773 63.3547 13.7493 63.3921 13.7214C63.4689 13.524 63.4294 13.3825 63.2428 13.2986C63.166 13.2427 63.0913 13.2147 62.9793 13.2147C62.942 13.2147 62.9047 13.2427 62.7905 13.2706C62.6786 13.3266 62.5644 13.3825 62.4898 13.4401C62.3778 13.524 62.2637 13.5799 62.1517 13.6654C61.8136 13.8628 61.5129 14.0586 61.2494 14.256C60.9487 14.4534 60.6479 14.6788 60.3098 14.8762C59.8576 15.1871 59.3702 15.4125 58.918 15.6379C58.5799 15.7777 58.2418 15.8912 57.9037 16.0031C57.8664 16.031 57.8269 16.031 57.7522 16.031C57.603 16.031 57.5261 15.9471 57.5261 15.7777C57.5261 14.5669 58.6918 12.509 59.4075 11.4397C59.4822 11.2982 59.5568 11.1847 59.671 11.0449C59.7456 10.9314 59.8202 10.8195 59.8949 10.678C60.009 10.4247 59.9717 10.2273 59.7083 10.1154C59.5941 10.0858 59.5195 10.0578 59.4822 10.0578C59.3702 10.0578 59.2187 10.1154 59.0299 10.2553C58.918 10.3408 58.8433 10.4527 58.7687 10.5366C58.6545 10.6501 58.5799 10.7619 58.4679 10.8475C58.2418 11.0728 58.0157 11.2982 57.8269 11.5236C57.603 11.749 57.3768 11.9743 57.1507 12.1717C57.0014 12.3132 56.8873 12.3971 56.8126 12.3971C56.7753 12.3971 56.6611 12.3412 56.4745 12.2556C56.0991 12.0303 55.7215 11.9184 55.3461 11.9184C54.9334 11.9184 54.5185 12.0303 54.1058 12.2836C53.8423 12.4251 53.6535 12.5386 53.5416 12.6504C52.4132 13.496 51.1728 15.1575 51.1728 16.3979C51.2101 16.8486 51.5109 17.074 52.0004 17.074ZM52.3385 16.059C52.3385 16.031 52.3385 16.031 52.3012 16.031L52.2639 16.0031C52.5646 14.7923 53.3154 13.7773 54.4812 13.0173C54.67 12.8758 55.12 12.6784 55.3835 12.6784C55.5723 12.6784 55.7215 12.7343 55.9103 12.8199C56.0991 12.9038 56.1365 13.0453 56.0596 13.2147C56.0223 13.2986 55.9477 13.3266 55.9103 13.3545C54.8939 14.284 53.8797 15.2151 52.6766 15.9751C52.602 16.031 52.4878 16.059 52.3385 16.059Z" fill="white"/>
<path d="M81.6668 22.7099C81.9303 22.7099 82.1937 22.6803 82.4177 22.5964C84.5625 22.1177 87.3067 19.3836 88.1717 17.8636C88.5097 17.3273 89.0366 16.9325 89.7501 16.6512C90.7665 16.2843 91.7808 15.8912 92.795 15.4684C93.7742 15.0736 94.7511 14.6788 95.728 14.284C95.8795 14.228 96.0288 14.1721 96.1803 14.1162C96.3295 14.0586 96.481 13.9747 96.593 13.8908C96.6698 13.8628 96.7071 13.7773 96.7071 13.6934C96.7071 13.6078 96.6698 13.5519 96.6303 13.468C96.5557 13.3825 96.4437 13.3265 96.3295 13.3265C96.2549 13.3265 96.2176 13.3265 96.1803 13.3545C96.0683 13.3825 95.9168 13.4401 95.8049 13.468C95.6534 13.496 95.5041 13.5519 95.3899 13.5799L90.3889 15.5523C90.277 15.6082 90.1255 15.6658 90.0135 15.7217C89.8643 15.8056 89.7128 15.8336 89.524 15.8336H89.3747C89.3001 15.6938 89.3001 15.5523 89.3374 15.4125C89.3747 15.299 89.412 15.1575 89.412 15.0177C89.4493 13.6934 88.4351 12.8478 86.6678 12.7639C86.029 12.7639 85.4253 12.7639 84.8238 12.8758C84.2618 12.9597 83.7349 13.0452 83.1707 13.1291C82.6065 13.2147 82.0423 13.3265 81.478 13.4104C81.1773 13.4401 80.8765 13.496 80.5758 13.524C80.275 13.5799 79.9742 13.6358 79.6735 13.6654C79.5988 13.6654 79.522 13.6654 79.4847 13.6654C79.41 13.6934 79.3354 13.6934 79.2608 13.6934C77.9435 13.6934 77.1532 13.1571 76.892 12.0582C76.7032 11.3541 76.7778 10.65 77.0413 9.89004C78.3585 6.42392 81.028 3.71946 85.0499 1.77501C86.2156 1.21076 87.8336 0.732047 89.2232 0.732047C90.8412 0.732047 92.233 1.23872 92.233 2.5926C92.233 4.14223 89.9016 7.3254 87.7194 7.60671C87.6821 7.63467 87.6448 7.63467 87.6074 7.63467C87.5701 7.63467 87.4955 7.66264 87.456 7.69225C87.2694 7.80411 87.1925 7.91762 87.232 8.05745C87.2694 8.28282 87.5328 8.31079 87.7962 8.31079C88.9598 8.31079 89.9389 7.57874 90.6524 6.98652C91.7435 5.88763 92.5338 4.73281 93.0212 3.46447C93.1726 3.12724 93.21 2.76039 93.1726 2.36723C93.0585 0.760012 91.2166 0 89.1859 0C87.3813 0 85.5768 0.592218 84.0729 1.35223C80.4638 3.1552 77.1159 6.47985 76.139 9.63505C75.8009 10.6221 75.6867 11.5795 76.027 12.5665C76.4771 13.8053 77.6801 14.3975 79.3354 14.3975C80.1257 14.3975 80.9512 14.256 81.7042 14.1441C82.2684 14.0586 82.8699 13.9467 83.4714 13.8628C84.0356 13.7773 84.6371 13.6654 85.2014 13.5799C85.5768 13.524 85.9895 13.496 86.4044 13.496C87.8709 13.524 88.5471 14.0882 88.3978 15.243C88.2836 15.8912 88.0202 16.5393 87.2694 16.8766C86.7798 17.074 86.2902 17.2993 85.8402 17.4967C85.3506 17.7221 84.9006 17.9475 84.411 18.1449C83.0192 18.793 81.2893 19.864 80.4265 20.9629C80.0862 21.4416 80.1257 21.8923 80.6131 22.3431C80.8765 22.5964 81.2519 22.7099 81.6668 22.7099ZM81.7415 21.9762C81.6295 21.9762 81.478 21.9203 81.3661 21.8364C81.2146 21.6949 81.1773 21.5534 81.2146 21.4136C81.8161 20.2012 85.0499 18.6795 86.6678 18.0034C85.9522 19.4971 84.2991 20.9629 82.6811 21.6669C82.4176 21.7788 82.1937 21.8644 81.9303 21.9482C81.893 21.9762 81.8161 21.9762 81.7415 21.9762Z" fill="white"/>
<path d="M95.0154 17.074C95.5028 17.074 96.1417 16.6792 96.4819 16.4538C97.4215 15.8056 98.2492 15.1295 99.1141 14.3695C99.2261 14.284 99.3754 14.1721 99.4896 14.0586C99.6015 13.9467 99.7903 13.8628 100.054 13.7773C99.7903 14.539 99.5642 15.271 99.5642 16.031C99.5642 16.5673 99.865 16.8486 100.504 16.8486C100.655 16.8486 100.767 16.8486 100.842 16.8206C102.423 16.6232 105.092 14.7347 106.181 13.9188C106.22 13.8908 106.295 13.8332 106.332 13.8053C106.37 13.7773 106.37 13.7493 106.407 13.7214C106.484 13.524 106.444 13.3825 106.258 13.2986C106.181 13.2427 106.106 13.2147 105.994 13.2147C105.957 13.2147 105.92 13.2427 105.806 13.2706C105.694 13.3266 105.579 13.3825 105.505 13.4401C105.393 13.524 105.279 13.5799 105.167 13.6654C104.829 13.8628 104.528 14.0586 104.264 14.256C103.964 14.4534 103.663 14.6788 103.325 14.8762C102.873 15.1871 102.385 15.4125 101.933 15.6379C101.595 15.7777 101.257 15.8912 100.919 16.0031C100.881 16.031 100.842 16.031 100.767 16.031C100.618 16.031 100.541 15.9471 100.541 15.7777C100.541 14.5669 101.707 12.509 102.423 11.4397C102.497 11.2982 102.572 11.1847 102.686 11.0449C102.761 10.9314 102.835 10.8195 102.91 10.678C103.024 10.4247 102.987 10.2273 102.723 10.1154C102.609 10.0858 102.535 10.0578 102.497 10.0578C102.385 10.0578 102.234 10.1154 102.045 10.2553C101.933 10.3408 101.858 10.4527 101.784 10.5366C101.67 10.6501 101.595 10.7619 101.483 10.8475C101.257 11.0728 101.031 11.2982 100.842 11.5236C100.618 11.749 100.392 11.9743 100.166 12.1717C100.016 12.3132 99.9023 12.3971 99.8276 12.3971C99.7903 12.3971 99.6762 12.3412 99.4896 12.2556C99.1142 12.0303 98.7366 11.9184 98.3611 11.9184C97.9484 11.9184 97.5335 12.0303 97.1208 12.2836C96.8573 12.4251 96.6685 12.5386 96.5566 12.6504C95.4282 13.496 94.1878 15.1575 94.1878 16.3979C94.2251 16.8486 94.5259 17.074 95.0154 17.074ZM95.3535 16.059C95.3535 16.031 95.3535 16.031 95.3162 16.031L95.2789 16.0031C95.5796 14.7923 96.3305 13.7773 97.4962 13.0173C97.685 12.8758 98.135 12.6784 98.3985 12.6784C98.5873 12.6784 98.7366 12.7343 98.9253 12.8199C99.1141 12.9038 99.1515 13.0453 99.0746 13.2147C99.0373 13.2986 98.9627 13.3266 98.9253 13.3545C97.9089 14.284 96.8947 15.2151 95.6916 15.9751C95.617 16.031 95.5028 16.059 95.3535 16.059Z" fill="white"/>
<path d="M104.791 19.2158C104.978 19.2158 105.129 19.1582 105.279 19.0464C105.694 18.793 105.843 18.4821 106.106 18.1449C106.708 17.3553 107.309 16.5393 107.911 15.7217C108.401 15.0736 108.927 14.4534 109.566 13.8908C109.678 13.8053 109.755 13.6934 109.867 13.5519C109.979 13.4401 110.093 13.4104 110.242 13.4401C110.431 13.468 110.543 13.5799 110.506 13.7214C110.469 13.8628 110.431 14.0027 110.431 14.1162C110.431 14.5389 110.394 14.9601 110.357 15.3829C110.357 15.8336 110.357 16.2284 110.62 16.6512C110.807 16.8486 110.995 16.9325 111.259 16.9325C111.296 16.9325 111.408 16.9045 111.56 16.8766C111.823 16.7927 112.084 16.6512 112.273 16.5097C112.462 16.3699 112.688 16.2004 112.875 16.059C113.138 15.8632 113.439 15.6378 113.702 15.4404C113.966 15.243 114.266 15.0456 114.605 14.9041C114.793 14.9897 114.943 15.1295 115.017 15.271C115.057 15.4125 115.169 15.5523 115.281 15.6938C115.696 16.1725 116.223 16.3979 116.861 16.3979C117.162 16.3979 117.463 16.3699 117.726 16.2843C118.251 16.0886 118.703 15.8912 119.079 15.6658L121.335 14.228C121.522 14.1162 121.711 13.9747 121.862 13.8332C122.126 13.6358 122.126 13.468 121.9 13.2986C121.823 13.2147 121.711 13.1571 121.562 13.1571C121.447 13.1571 121.335 13.2147 121.147 13.2986C121.109 13.3825 121.035 13.4104 120.997 13.4401C120.207 13.9747 119.342 14.5389 118.477 15.0736C118.139 15.271 117.349 15.6658 116.861 15.6658C116.635 15.6658 116.409 15.5803 116.223 15.4125C116.071 15.271 115.959 15.1295 115.845 14.9321C115.808 14.8482 115.77 14.7643 115.733 14.6788C115.696 14.5949 115.619 14.5093 115.544 14.4254C115.395 14.1721 115.131 14.0586 114.793 14.0586C114.756 14.0586 114.605 14.0882 114.416 14.1162C114.192 14.2001 113.966 14.3136 113.702 14.4534C113.513 14.5949 113.29 14.7643 113.101 14.9041C112.875 15.0456 112.649 15.2151 112.462 15.3549L111.746 15.8632C111.709 15.8632 111.709 15.8632 111.672 15.8912C111.483 15.8912 111.371 15.8336 111.371 15.7217C111.371 15.6378 111.371 15.5243 111.371 15.4125C111.334 15.299 111.334 15.1871 111.334 15.0736C111.371 14.8482 111.371 14.6228 111.408 14.3975C111.445 14.1721 111.445 13.9467 111.445 13.6934C111.483 13.3545 111.483 13.0173 111.296 12.7064C111.182 12.453 110.958 12.3132 110.62 12.3132C110.506 12.3132 110.357 12.3412 110.205 12.3971C109.191 12.9317 108.363 13.7773 107.724 14.5389C107.386 14.9321 107.086 15.3269 106.785 15.7217C106.482 16.1445 106.181 16.5393 105.88 16.9325C105.843 16.9621 105.806 17.018 105.768 17.074C105.731 17.1299 105.694 17.1579 105.58 17.1579C105.505 17.1579 105.43 17.1579 105.393 17.1299C105.43 17.074 105.43 17.018 105.43 16.9621C105.393 16.9045 105.393 16.8486 105.43 16.7647C106.069 14.5093 106.934 12.2556 108.249 10.1993C108.326 10.0578 108.401 9.94597 108.512 9.8045C108.589 9.69263 108.589 9.55116 108.552 9.40968C108.512 9.32579 108.326 9.18431 108.212 9.18431C108.174 9.18431 108.1 9.21228 107.988 9.24189C107.16 9.55116 105.505 13.6078 105.204 14.3415C104.64 15.7777 104.19 17.2714 104.19 18.7651C104.19 18.9905 104.339 19.1303 104.603 19.1879C104.64 19.2158 104.717 19.2158 104.791 19.2158Z" fill="white"/>
<path d="M118.253 26.5413C118.591 26.5413 118.778 26.4277 118.892 26.2024C119.004 25.949 119.116 25.6957 119.193 25.4983C120.508 21.8644 124.005 15.6658 127.84 13.1571C128.253 12.8479 128.705 12.6225 129.269 12.4251C129.306 12.3971 129.381 12.3971 129.495 12.3971C129.682 12.3971 129.833 12.481 129.908 12.6784C129.983 12.9318 129.983 13.1851 129.945 13.4105C129.908 13.6655 129.833 13.8908 129.796 14.1442C129.757 14.5669 129.495 14.9321 128.931 15.1871C127.465 15.8912 124.532 17.6662 124.343 18.9905C124.231 19.5251 124.681 19.892 125.282 19.892C125.471 19.892 125.66 19.864 125.847 19.7785C127.539 19.2718 129.495 17.2434 130.097 15.9751C130.36 15.4964 130.773 15.1295 131.374 14.9321C131.75 14.8203 132.127 14.7068 132.503 14.5669C132.878 14.4255 133.254 14.3136 133.631 14.2001C133.969 14.1162 134.27 14.0027 134.608 13.9188C134.946 13.8332 135.247 13.7493 135.585 13.6655C135.849 13.6079 135.923 13.496 135.886 13.2986C135.849 13.1012 135.622 12.9597 135.359 12.9893C135.247 12.9893 135.135 13.0173 134.984 13.0453C134.797 13.0732 134.646 13.1292 134.534 13.1571L131.901 13.9188C131.787 13.9468 131.675 14.0027 131.563 14.0307C131.449 14.0586 131.337 14.1162 131.223 14.1442C131.186 14.1721 131.148 14.1721 131.074 14.1721C130.885 14.1721 130.81 14.0882 130.848 13.9188C130.962 13.3825 131.074 12.9038 130.81 12.3692C130.621 11.8608 130.246 11.6075 129.682 11.6075C129.533 11.6075 129.344 11.6355 129.118 11.693C128.029 11.8904 126.786 12.7064 125.62 13.8053C125.058 14.3416 124.494 14.9601 123.93 15.6083C122.839 16.9325 121.899 18.2288 121.184 19.3557C120.808 19.9479 120.508 20.4266 120.281 20.8214C120.169 21.0188 120.095 21.2442 119.757 21.3857C119.717 21.1307 119.757 20.9053 119.831 20.6799C119.906 20.4546 119.981 20.2292 120.018 20.0318C121.034 16.3979 122.349 12.8758 124.268 9.46729C124.305 9.38174 124.343 9.32581 124.343 9.29785C124.457 9.10044 124.38 8.95896 124.194 8.90303C124.156 8.87507 124.079 8.87507 124.042 8.87507C123.853 8.87507 123.741 8.931 123.667 9.04451C122.951 10.0019 121.937 12.0582 121.447 13.1292C119.757 16.9901 118.628 20.8773 118.027 24.9061C117.95 25.3009 117.913 25.6957 117.913 26.0905C117.913 26.3438 118.027 26.4853 118.253 26.5413ZM125.62 19.0184C125.583 19.0184 125.509 18.9905 125.471 18.9625C125.397 18.9329 125.397 18.849 125.434 18.7075C126.299 17.7781 127.164 16.9325 128.516 16.3979C128.553 16.314 128.63 16.314 128.668 16.3419C128.742 16.3979 128.705 16.4538 128.593 16.4818C128.029 17.5807 127.012 18.3144 125.809 18.9625C125.697 18.9905 125.66 19.0184 125.62 19.0184Z" fill="white"/>
<path d="M134.195 17.074C134.683 17.074 135.321 16.6792 135.662 16.4538C136.601 15.8056 137.429 15.1295 138.294 14.3695C138.406 14.284 138.555 14.1721 138.669 14.0586C138.781 13.9467 138.97 13.8628 139.234 13.7773C138.97 14.539 138.744 15.271 138.744 16.031C138.744 16.5673 139.045 16.8486 139.684 16.8486C139.835 16.8486 139.947 16.8486 140.022 16.8206C141.602 16.6232 144.272 14.7347 145.361 13.9188C145.4 13.8908 145.475 13.8332 145.512 13.8053C145.55 13.7773 145.55 13.7493 145.587 13.7214C145.664 13.524 145.624 13.3825 145.438 13.2986C145.361 13.2427 145.286 13.2147 145.174 13.2147C145.137 13.2147 145.1 13.2427 144.985 13.2706C144.873 13.3266 144.759 13.3825 144.685 13.4401C144.573 13.524 144.458 13.5799 144.346 13.6654C144.008 13.8628 143.708 14.0586 143.444 14.256C143.143 14.4534 142.843 14.6788 142.505 14.8762C142.052 15.1871 141.565 15.4125 141.113 15.6379C140.775 15.7777 140.437 15.8912 140.099 16.0031C140.061 16.031 140.022 16.031 139.947 16.031C139.798 16.031 139.721 15.9471 139.721 15.7777C139.721 14.5669 140.887 12.509 141.602 11.4397C141.677 11.2982 141.752 11.1847 141.866 11.0449C141.94 10.9314 142.015 10.8195 142.09 10.678C142.204 10.4247 142.167 10.2273 141.903 10.1154C141.789 10.0858 141.714 10.0578 141.677 10.0578C141.565 10.0578 141.414 10.1154 141.225 10.2553C141.113 10.3408 141.038 10.4527 140.963 10.5366C140.849 10.6501 140.775 10.7619 140.663 10.8475C140.437 11.0728 140.21 11.2982 140.022 11.5236C139.798 11.749 139.572 11.9743 139.346 12.1717C139.196 12.3132 139.082 12.3971 139.007 12.3971C138.97 12.3971 138.856 12.3412 138.669 12.2556C138.294 12.0303 137.916 11.9184 137.541 11.9184C137.128 11.9184 136.713 12.0303 136.301 12.2836C136.037 12.4251 135.848 12.5386 135.736 12.6504C134.608 13.496 133.368 15.1575 133.368 16.3979C133.405 16.8486 133.706 17.074 134.195 17.074ZM134.533 16.059C134.533 16.031 134.533 16.031 134.496 16.031L134.459 16.0031C134.759 14.7923 135.51 13.7773 136.676 13.0173C136.865 12.8758 137.315 12.6784 137.578 12.6784C137.767 12.6784 137.916 12.7343 138.105 12.8199C138.294 12.9038 138.331 13.0453 138.254 13.2147C138.217 13.2986 138.142 13.3266 138.105 13.3545C137.089 14.284 136.074 15.2151 134.871 15.9751C134.797 16.031 134.683 16.059 134.533 16.059Z" fill="white"/>
<path d="M145.361 18.4821C146.377 18.4821 147.391 17.8916 148.107 17.4128C149.76 16.3699 151.077 15.1295 152.392 13.8628C152.506 13.7773 152.581 13.6934 152.618 13.5519C152.656 13.4104 152.618 13.2986 152.469 13.2147C152.392 13.1571 152.318 13.1291 152.206 13.1291C152.129 13.1291 152.054 13.1571 152.017 13.1851C151.828 13.2986 151.641 13.4104 151.49 13.5519C151.189 13.8053 150.888 14.0882 150.625 14.3415C150.362 14.5949 150.061 14.8762 149.76 15.1295C148.895 15.8912 147.993 16.5393 146.979 17.1875C146.526 17.4408 146.114 17.6382 145.549 17.7221C145.137 17.7221 144.911 17.6941 144.799 17.3832C144.722 17.1299 144.684 16.8766 144.722 16.6512C144.948 15.3269 145.512 13.9188 146.151 12.6784C146.188 12.5386 146.151 12.4251 145.964 12.3691C145.85 12.3412 145.776 12.3132 145.701 12.3132C145.624 12.3132 145.512 12.3412 145.4 12.3971C144.421 13.1291 144.008 15.4125 143.745 16.6512C143.745 17.074 143.745 17.3553 143.896 17.6662C144.158 18.2008 144.647 18.4821 145.361 18.4821ZM146.34 11.2982C146.752 11.2982 147.128 11.0169 147.128 10.706C147.091 10.3967 146.827 10.2552 146.377 10.2552C145.925 10.2552 145.701 10.4247 145.701 10.7619C145.738 11.1008 146.002 11.3262 146.34 11.2982Z" fill="white"/>
<path d="M152.317 18.0889C152.655 18.0889 153.033 18.0034 153.371 17.8636C153.861 17.6086 154.236 17.2993 154.5 16.8765C154.838 16.3419 154.912 15.8056 154.763 15.271C154.649 14.7923 154.611 14.7923 155.327 14.7067C156.115 14.6508 156.831 14.5093 157.544 14.3136C158.221 14.1162 158.936 13.9467 159.65 13.7493C159.988 13.6654 160.065 13.496 159.951 13.2986C159.839 13.1571 159.65 13.0732 159.463 13.0732L158.862 13.1851C158.521 13.2706 158.183 13.3825 157.845 13.468C157.507 13.5519 157.132 13.6654 156.794 13.7493C156.078 13.9187 155.402 14.0026 154.686 14.0026H153.52C153.259 14.0306 153.033 14.228 153.145 14.4254C153.259 14.6228 153.371 14.7923 153.52 14.9897C154.085 15.6378 153.898 16.2284 153.408 16.8206C153.07 17.2714 152.695 17.3273 152.093 17.3273C151.604 17.2434 151.34 16.9045 151.34 16.3699C151.34 16.059 151.378 15.7777 151.492 15.5523C151.641 15.0736 151.905 14.5949 152.243 14.1162C152.655 13.6358 152.996 13.1571 153.861 13.0452C154.122 13.0173 154.122 12.8758 154.085 12.6784C154.047 12.5386 153.935 12.425 153.672 12.3971C153.483 12.3971 153.334 12.425 153.182 12.481C151.716 12.9038 150.475 15.0176 150.363 16.1725C150.326 16.3978 150.363 16.6512 150.438 16.9045C150.627 17.6662 151.415 18.0889 152.317 18.0889Z" fill="white"/>
<path d="M32.076 38.5785C31.2154 38.5785 30.4361 38.437 29.7402 38.1508C29.042 37.8613 28.4954 37.4632 28.098 36.9532C27.7051 36.4449 27.5097 35.874 27.5097 35.2423C27.5097 34.6156 27.7051 34.048 28.098 33.5381C28.4954 33.0297 29.042 32.6333 29.7402 32.3471C30.4427 32.0575 31.2264 31.9128 32.0936 31.9128C32.7434 31.9128 33.3405 31.995 33.885 32.1562C34.4338 32.3191 34.9036 32.556 35.29 32.8669L34.7016 33.3078C34.0167 32.7912 33.1561 32.5313 32.1199 32.5313C31.4284 32.5313 30.7983 32.6497 30.2319 32.8866C29.6633 33.1235 29.2177 33.4492 28.8971 33.8605C28.581 34.2734 28.4229 34.734 28.4229 35.2423C28.4229 35.7556 28.581 36.2195 28.8971 36.6308C29.2177 37.0437 29.6633 37.3677 30.2319 37.6046C30.7983 37.8415 31.4284 37.96 32.1199 37.96C33.1671 37.96 34.0277 37.6968 34.7016 37.1703L35.29 37.6112C34.9036 37.9238 34.4316 38.1623 33.8762 38.3284C33.3252 38.4962 32.7258 38.5785 32.076 38.5785Z" fill="white"/>
<path d="M44.2328 38.5193L42.2306 36.4136C42.0067 36.4317 41.7762 36.4399 41.5369 36.4399H39.1835V38.5193H38.2614V31.972H41.5369C42.6477 31.972 43.5215 32.1727 44.1537 32.5708C44.786 32.9705 45.1021 33.5183 45.1021 34.2158C45.1021 34.7258 44.9287 35.1568 44.584 35.5121C44.2372 35.8642 43.7454 36.1175 43.1087 36.2754L45.2426 38.5193H44.2328ZM41.5105 35.8543C42.3755 35.8543 43.0385 35.7128 43.4951 35.4266C43.9518 35.137 44.1801 34.734 44.1801 34.2158C44.1801 33.6861 43.9518 33.2798 43.4951 32.9985C43.0385 32.7139 42.3755 32.5708 41.5105 32.5708H39.1835V35.8543H41.5105Z" fill="white"/>
<path d="M51.5659 31.972C52.6768 31.972 53.5505 32.1727 54.1828 32.5708C54.815 32.9705 55.1312 33.5183 55.1312 34.2158C55.1312 34.9133 54.815 35.4628 54.1828 35.8609C53.5505 36.2557 52.6768 36.4531 51.5659 36.4531H49.2125V38.5193H48.2905V31.972H51.5659ZM51.5396 35.8411C52.4045 35.8411 53.0675 35.7013 53.5242 35.42C53.9808 35.1354 54.2091 34.734 54.2091 34.2158C54.2091 33.6861 53.9808 33.2798 53.5242 32.9985C53.0675 32.7139 52.4045 32.5708 51.5396 32.5708H49.2125V35.8411H51.5396Z" fill="white"/>
<path d="M65.2416 38.5785C64.561 38.5785 63.9595 38.4452 63.4326 38.1771C62.9058 37.9057 62.493 37.5191 62.1945 37.019C61.9003 36.5156 61.7554 35.9234 61.7554 35.2423C61.7554 34.5629 61.9003 33.9724 62.1945 33.4723C62.493 32.9689 62.9058 32.5823 63.4326 32.3142C63.9595 32.0477 64.561 31.9128 65.2416 31.9128C65.9134 31.9128 66.5149 32.0477 67.0418 32.3142C67.5687 32.5823 67.9814 32.9689 68.28 33.4723C68.5829 33.9724 68.7366 34.5629 68.7366 35.2423C68.7366 35.9234 68.5829 36.5156 68.28 37.019C67.9814 37.5191 67.5687 37.9057 67.0418 38.1771C66.5149 38.4452 65.9134 38.5785 65.2416 38.5785ZM65.2416 37.96C65.7443 37.96 66.19 37.8547 66.5764 37.6441C66.9671 37.4303 67.2723 37.121 67.4896 36.7163C67.7048 36.3083 67.8145 35.8181 67.8145 35.2423C67.8145 34.6682 67.7048 34.1796 67.4896 33.775C67.2723 33.3719 66.9671 33.0643 66.5764 32.8537C66.19 32.6399 65.7443 32.5313 65.2416 32.5313C64.7323 32.5313 64.2844 32.6399 63.898 32.8537C63.5117 33.0643 63.2087 33.3719 62.9936 33.775C62.7762 34.1796 62.6687 34.6682 62.6687 35.2423C62.6687 35.8181 62.7762 36.3083 62.9936 36.7163C63.2087 37.121 63.5117 37.4303 63.898 37.6441C64.2844 37.8547 64.7323 37.96 65.2416 37.96Z" fill="white"/>
<path d="M74.6401 34.5975C75.2131 34.5975 75.7224 34.6797 76.1681 34.8409C76.6181 35.0038 76.9672 35.2341 77.2131 35.5319C77.4633 35.8263 77.5907 36.1701 77.5907 36.565C77.5907 36.9647 77.4611 37.3184 77.2043 37.6244C76.9452 37.9271 76.5896 38.1623 76.133 38.3284C75.6807 38.4962 75.1714 38.5785 74.605 38.5785C73.4459 38.5785 72.5589 38.2939 71.9442 37.7231C71.3295 37.1489 71.0222 36.3412 71.0222 35.3016C71.0222 34.5695 71.189 33.951 71.5227 33.4459C71.8564 32.9426 72.3218 32.5609 72.919 32.301C73.5161 32.0427 74.2142 31.9128 75.0177 31.9128C75.8827 31.9128 76.5742 32.0312 77.0901 32.2681L76.7301 32.8142C76.313 32.6086 75.7466 32.505 75.0265 32.505C74.0606 32.505 73.301 32.7353 72.7521 33.1959C72.2077 33.6532 71.9355 34.3178 71.9355 35.1897C71.9355 35.3443 71.9464 35.522 71.9706 35.7227C72.1857 35.3674 72.5326 35.091 73.0068 34.8936C73.481 34.6962 74.0254 34.5975 74.6401 34.5975ZM74.5699 38.006C75.2021 38.006 75.7136 37.8777 76.1066 37.6178C76.504 37.3595 76.7037 37.0157 76.7037 36.5847C76.7037 36.1553 76.504 35.8132 76.1066 35.5582C75.7136 35.2999 75.1802 35.17 74.5084 35.17C74.0627 35.17 73.6698 35.2341 73.3317 35.3608C72.998 35.4842 72.7346 35.6552 72.5414 35.874C72.3526 36.0895 72.2604 36.3314 72.2604 36.5979C72.2604 36.8479 72.3482 37.0815 72.5238 37.2954C72.7038 37.5059 72.9673 37.677 73.3141 37.8086C73.6654 37.9402 74.0825 38.006 74.5699 38.006Z" fill="white"/>
<path d="M82.7887 30.6428H83.5966L79.4781 39.4536H78.6614L82.7887 30.6428Z" fill="white"/>
<path d="M87.234 31.972V38.5193H86.3295V32.5708H84.2747V31.972H87.234Z" fill="white"/>
<path d="M93.0406 31.9128C94.1998 31.9128 95.0867 32.199 95.7014 32.7682C96.3161 33.339 96.6234 34.1467 96.6234 35.1897C96.6234 35.9185 96.4566 36.537 96.1229 37.0453C95.7892 37.5503 95.3238 37.932 94.7267 38.1903C94.1295 38.4502 93.4292 38.5785 92.6279 38.5785C91.7608 38.5785 91.0692 38.4584 90.5555 38.2166L90.9155 37.677C91.3305 37.8843 91.8991 37.9863 92.6191 37.9863C93.5851 37.9863 94.3403 37.7593 94.8847 37.3019C95.4336 36.8413 95.7102 36.1751 95.7102 35.3016C95.7102 35.1403 95.697 34.9627 95.6751 34.7686C95.4577 35.1239 95.113 35.4003 94.6389 35.5977C94.1647 35.7918 93.6202 35.8872 93.0055 35.8872C92.4303 35.8872 91.9188 35.8066 91.4688 35.6437C91.0231 35.4825 90.6741 35.2539 90.4238 34.9594C90.1779 34.6616 90.055 34.3178 90.055 33.9263C90.055 33.5282 90.1823 33.1745 90.4413 32.8669C90.6982 32.5609 91.0517 32.3257 91.5039 32.1628C91.9605 31.9967 92.472 31.9128 93.0406 31.9128ZM93.1372 35.3213C93.5807 35.3213 93.9715 35.2604 94.3052 35.1371C94.6432 35.0104 94.9067 34.8377 95.0955 34.6172C95.2887 34.3984 95.3853 34.155 95.3853 33.8868C95.3853 33.6368 95.2931 33.4065 95.113 33.1959C94.9374 32.9853 94.674 32.8142 94.3227 32.6826C93.9758 32.551 93.5609 32.4852 93.0758 32.4852C92.4435 32.4852 91.9276 32.6152 91.5302 32.8735C91.1373 33.1334 90.9419 33.4772 90.9419 33.9066C90.9419 34.3376 91.1373 34.6814 91.5302 34.9397C91.9276 35.1946 92.4633 35.3213 93.1372 35.3213Z" fill="white"/>
<path d="M101.892 34.7752C102.809 34.8147 103.507 35.0022 103.982 35.3345C104.46 35.6684 104.702 36.1027 104.702 36.6374C104.702 37.0108 104.581 37.3447 104.342 37.6376C104.1 37.9271 103.744 38.1574 103.27 38.3285C102.796 38.4963 102.216 38.5785 101.532 38.5785C100.899 38.5785 100.302 38.5029 99.7401 38.3482C99.1781 38.1952 98.7259 37.9912 98.3878 37.7363L98.8269 37.1967C99.1123 37.4254 99.4964 37.6096 99.9772 37.7494C100.462 37.8909 100.981 37.96 101.532 37.96C102.245 37.96 102.798 37.8448 103.191 37.6112C103.582 37.3744 103.78 37.0503 103.78 36.6374C103.78 36.2343 103.582 35.9185 103.191 35.6898C102.798 35.4579 102.208 35.3411 101.417 35.3411H100.794V34.841L103.218 32.5708H98.7478V31.972H104.368V32.4458L101.892 34.7752Z" fill="white"/>
<path d="M109.267 34.6567C110.532 34.6567 111.45 34.8278 112.025 35.1699C112.604 35.5088 112.894 35.9826 112.894 36.5913C112.894 36.9729 112.773 37.3134 112.534 37.6112C112.299 37.9106 111.946 38.1475 111.472 38.3219C110.997 38.4929 110.413 38.5785 109.724 38.5785C109.103 38.5785 108.512 38.5028 107.95 38.3482C107.388 38.1952 106.934 37.9912 106.589 37.7362L107.028 37.1966C107.32 37.4253 107.704 37.6095 108.179 37.7494C108.653 37.8908 109.164 37.9599 109.715 37.9599C110.435 37.9599 110.993 37.8399 111.393 37.598C111.79 37.3529 111.99 37.0256 111.99 36.6176C111.99 36.1701 111.764 35.8329 111.314 35.6042C110.868 35.3723 110.119 35.2555 109.065 35.2555H107.204L107.652 31.972H112.438V32.5708H108.442L108.143 34.6567H109.267Z" fill="white"/>
<path d="M118.521 38.5785C117.84 38.5785 117.239 38.4452 116.712 38.1771C116.185 37.9057 115.772 37.5191 115.474 37.019C115.179 36.5156 115.035 35.9234 115.035 35.2423C115.035 34.5629 115.179 33.9724 115.474 33.4723C115.772 32.9689 116.185 32.5823 116.712 32.3142C117.239 32.0477 117.84 31.9128 118.521 31.9128C119.193 31.9128 119.794 32.0477 120.321 32.3142C120.848 32.5823 121.261 32.9689 121.559 33.4723C121.862 33.9724 122.016 34.5629 122.016 35.2423C122.016 35.9234 121.862 36.5156 121.559 37.019C121.261 37.5191 120.848 37.9057 120.321 38.1771C119.794 38.4452 119.193 38.5785 118.521 38.5785ZM118.521 37.96C119.024 37.96 119.469 37.8547 119.856 37.6441C120.246 37.4303 120.551 37.121 120.769 36.7163C120.984 36.3083 121.094 35.8181 121.094 35.2423C121.094 34.6682 120.984 34.1796 120.769 33.775C120.551 33.3719 120.246 33.0643 119.856 32.8537C119.469 32.6399 119.024 32.5313 118.521 32.5313C118.011 32.5313 117.564 32.6399 117.177 32.8537C116.791 33.0643 116.488 33.3719 116.273 33.775C116.055 34.1796 115.948 34.6682 115.948 35.2423C115.948 35.8181 116.055 36.3083 116.273 36.7163C116.488 37.121 116.791 37.4303 117.177 37.6441C117.564 37.8547 118.011 37.96 118.521 37.96Z" fill="white"/>
<path d="M127.92 34.5975C128.493 34.5975 129.002 34.6797 129.448 34.8409C129.898 35.0038 130.247 35.2341 130.493 35.5319C130.743 35.8263 130.87 36.1701 130.87 36.565C130.87 36.9647 130.741 37.3184 130.484 37.6244C130.225 37.9271 129.869 38.1623 129.413 38.3284C128.96 38.4962 128.451 38.5785 127.885 38.5785C126.726 38.5785 125.839 38.2939 125.224 37.7231C124.609 37.1489 124.302 36.3412 124.302 35.3016C124.302 34.5695 124.469 33.951 124.802 33.4459C125.136 32.9426 125.601 32.5609 126.199 32.301C126.796 32.0427 127.494 31.9128 128.297 31.9128C129.162 31.9128 129.854 32.0312 130.37 32.2681L130.01 32.8142C129.593 32.6086 129.026 32.505 128.306 32.505C127.34 32.505 126.581 32.7353 126.032 33.1959C125.487 33.6532 125.215 34.3178 125.215 35.1897C125.215 35.3443 125.226 35.522 125.25 35.7227C125.465 35.3674 125.812 35.091 126.286 34.8936C126.761 34.6962 127.305 34.5975 127.92 34.5975ZM127.85 38.006C128.482 38.006 128.993 37.8777 129.386 37.6178C129.784 37.3595 129.983 37.0157 129.983 36.5847C129.983 36.1553 129.784 35.8132 129.386 35.5582C128.993 35.2999 128.46 35.17 127.788 35.17C127.342 35.17 126.949 35.2341 126.611 35.3608C126.278 35.4842 126.014 35.6552 125.821 35.874C125.632 36.0895 125.54 36.3314 125.54 36.5979C125.54 36.8479 125.628 37.0815 125.803 37.2954C125.983 37.5059 126.247 37.677 126.594 37.8086C126.945 37.9402 127.362 38.006 127.85 38.006Z" fill="white"/>
</svg>
